# xmcd CD database file
#
# Track frame offsets:
#	150
#	44106
#	88435
#	149836
#	172733
#	208373
#	257298
#	300840
#
# Disc length: 4685 seconds
#
# Revision: 0
# Processed by: cddbd v1.5.2PL0 Copyright (c) Steve Scherf et al.
# Submitted via: CDex 1.51
#
DISCID=73124b08
DTITLE=Jacob ter Veldhuis - Heartbreakers
DYEAR=2001
DGENRE=Jazz
TTITLE0=Grab it! (for tenor sax and ghettoblaster)
TTITLE1=Heartbreakers pt. 1 (for jazz sextet and tape)
TTITLE2=Heartbreakers pt. 2 (for jazz sextet and tape)
TTITLE3=Tatatata (for cello and ghettoblaster)
TTITLE4=May this bliss never end (for cello, piano and ghettoblaster)
TTITLE5=Gulf war (for tape)
TTITLE6=Lipstick (for flute and ghettoblaster)
TTITLE7=Pitch black (for sax quartet and ghettoblaster)
EXTD=YEAR: 2001
EXTT0=
EXTT1=
EXTT2=
EXTT3=
EXTT4=
EXTT5=
EXTT6=
EXTT7=
PLAYORDER=
